<!-- icon666.com - MILLIONS vector ICONS FREE --><svg id="svg8" viewBox="0 0 8.4666665 8.4666669" xmlns="http://www.w3.org/2000/svg" xmlns:svg="http://www.w3.org/2000/svg"><g id="layer1" transform="translate(0 -288.533)"><path id="path823" d="m9.9707031 1c-.25501.00764-.4974605.1124426-.6777343.2929688l-8 8c-.1875363.1875115-.2929177.4418322-.2929688.7070312v18c0 1.646173 1.3569795 3 3.0019531 3h17.9960939c1.644974 0 3-1.354998 3-3v-8.751953l5.126953-5.126953c1.161871-1.163036 1.161871-3.081067 0-4.2441409l-2-2c-.57488-.5729386-1.358322-.885267-2.169922-.8710937-.330357.0048099-.651026.0736507-.957031.1816406v-3.1875c0-1.6449638-1.355019-3-3-3h-7.998047c-1.351719-.0188976-1.351719 2.0185197 0 2h7.998047c.564844 0 1 .4351874 1 1v4.7597656l-9.119141 9.1191404c-.562051.562092-.870412 1.325604-.871094 2.117188l-.007812 4.001953a1.0001001 1.0001001 0 0 0 1.003906 1.003906l3.992188-.007812c.790923-.000378 1.560969-.305072 2.126953-.871094l2.875-2.875v6.751953c0 .56485-.435178 1-1 1h-17.9960939c-.5648222 0-1.0019531-.436321-1.0019531-1v-17h5c1.6447045 0 3-1.3553008 3-3v-6c.000184-.5639067-.465631-1.01646277-1.0292969-1zm-.9707031 3.4140625v3.5859375c0 .5712378-.4287437 1-1 1h-3.5859375zm16.984375 4.5839844c.271071-.0037796.53058.1036778.722656.2949219l2.001953 2.0000002c.398471.398891.398471 1.011302 0 1.410156l-10.003906 10.003906c-.185144.185197-.437652.294922-.708984.294922h-2.996094v-3.005859c.000229-.265701.109449-.515673.294922-.701172l10.001953-10.0019532c.184301-.1836851.429607-.2911424.6875-.2949219z" transform="matrix(.265 0 0 .265 0 288.533)" font-variant-ligatures="normal" font-variant-position="normal" font-variant-caps="normal" font-variant-numeric="normal" font-variant-alternates="normal" font-feature-settings="normal" text-indent="0" text-align="start" text-decoration-line="none" text-decoration-style="solid" text-decoration-color="rgb(0,0,0)" text-transform="none" text-orientation="mixed" white-space="normal" shape-padding="0" isolation="auto" mix-blend-mode="normal" solid-color="rgb(0,0,0)" solid-opacity="1" vector-effect="none" fill="#000000" style="fill: rgb(255, 255, 255);"></path></g></svg>